<?xml version="1.0" encoding="UTF-8" standalone="no"?>
<svg
   xmlns:dc="http://purl.org/dc/elements/1.1/"
   xmlns:cc="http://creativecommons.org/ns#"
   xmlns:rdf="http://www.w3.org/1999/02/22-rdf-syntax-ns#"
   xmlns:svg="http://www.w3.org/2000/svg"
   xmlns="http://www.w3.org/2000/svg"
   id="svg8"
   version="1.1"
   viewBox="0 0 61.382999 12.478"
   height="12.478mm"
   width="61.382999mm">
  <defs
     id="defs2" />
  <metadata
     id="metadata5">
    <rdf:RDF>
      <cc:Work
         rdf:about="">
        <dc:format>image/svg+xml</dc:format>
        <dc:type
           rdf:resource="http://purl.org/dc/dcmitype/StillImage" />
        <dc:title></dc:title>
      </cc:Work>
    </rdf:RDF>
  </metadata>
  <g
     transform="translate(0,-284.522)"
     id="layer1">
    <g
       id="text12"
       style="font-style:normal;font-variant:normal;font-weight:800;font-stretch:normal;font-size:10.58333302px;line-height:1.25;font-family:Montserrat;-inkscape-font-specification:'Montserrat Ultra-Bold';letter-spacing:0px;word-spacing:0px;fill:#000000;fill-opacity:1;stroke:none;stroke-width:0.26458332"
       aria-label="vividcolors">
      <path
         id="path821"
         style="stroke-width:0.26458332"
         d="m 6.9532481,287.29508 -2.3706665,5.73617 H 2.5082483 L 0.14816502,287.29508 H 2.211915 l 1.3758332,3.50309 1.4499167,-3.50309 z" />
      <path
         id="path823"
         style="stroke-width:0.26458332"
         d="m 7.4627363,287.29508 h 2.0108333 v 5.73617 H 7.4627363 Z m 1.0054166,-0.635 q -0.5503333,0 -0.8889999,-0.30691 -0.3386667,-0.30692 -0.3386667,-0.762 0,-0.45509 0.3386667,-0.762 0.3386666,-0.30692 0.8889999,-0.30692 0.5503333,0 0.889,0.29633 0.3386667,0.28575 0.3386667,0.74084 0,0.47625 -0.3386667,0.79375 -0.3386667,0.30691 -0.889,0.30691 z" />
      <path
         id="path825"
         style="stroke-width:0.26458332"
         d="m 16.813111,287.29508 -2.370666,5.73617 h -2.074333 l -2.360084,-5.73617 h 2.06375 l 1.375834,3.50309 1.449916,-3.50309 z" />
      <path
         id="path827"
         style="stroke-width:0.26458332"
         d="m 17.322599,287.29508 h 2.010833 v 5.73617 h -2.010833 z m 1.005416,-0.635 q -0.550333,0 -0.889,-0.30691 -0.338666,-0.30692 -0.338666,-0.762 0,-0.45509 0.338666,-0.762 0.338667,-0.30692 0.889,-0.30692 0.550334,0 0.889,0.29633 0.338667,0.28575 0.338667,0.74084 0,0.47625 -0.338667,0.79375 -0.338666,0.30691 -0.889,0.30691 z" />
      <path
         id="path829"
         style="stroke-width:0.26458332"
         d="m 26.725891,285.17842 v 7.85283 h -1.915583 v -0.5715 q -0.560917,0.66675 -1.68275,0.66675 -0.783166,0 -1.42875,-0.35983 -0.645583,-0.37042 -1.026583,-1.04775 -0.370417,-0.67734 -0.370417,-1.56634 0,-0.889 0.370417,-1.55575 0.381,-0.67733 1.026583,-1.03716 0.645584,-0.35984 1.42875,-0.35984 1.026583,0 1.5875,0.59267 v -2.61408 z m -3.175,6.35 q 0.518584,0 0.85725,-0.35984 0.338667,-0.37041 0.338667,-1.016 0,-0.635 -0.338667,-0.99483 -0.328083,-0.35983 -0.85725,-0.35983 -0.529166,0 -0.867833,0.35983 -0.338666,0.35983 -0.338666,0.99483 0,0.64559 0.338666,1.016 0.338667,0.35984 0.867833,0.35984 z" />
      <path
         id="path831"
         style="stroke-width:0.26458332"
         d="m 30.940869,293.1265 q -0.9525,0 -1.703916,-0.381 -0.751417,-0.381 -1.17475,-1.05833 -0.41275,-0.67734 -0.41275,-1.53459 0,-0.85725 0.41275,-1.524 0.423333,-0.67733 1.17475,-1.04775 0.751416,-0.381 1.703916,-0.381 0.973667,0 1.68275,0.42334 0.709084,0.41275 1.005417,1.15358 l -1.55575,0.79375 q -0.391583,-0.77258 -1.143,-0.77258 -0.53975,0 -0.899583,0.35983 -0.34925,0.35983 -0.34925,0.99483 0,0.64559 0.34925,1.016 0.359833,0.35984 0.899583,0.35984 0.751417,0 1.143,-0.77259 l 1.55575,0.79375 q -0.296333,0.74084 -1.005417,1.16417 -0.709083,0.41275 -1.68275,0.41275 z" />
      <path
         id="path833"
         style="stroke-width:0.26458332"
         d="m 37.213148,293.1265 q -0.92075,0 -1.661583,-0.381 -0.740834,-0.381 -1.164167,-1.05833 -0.41275,-0.67734 -0.41275,-1.53459 0,-0.84666 0.41275,-1.524 0.423333,-0.67733 1.153583,-1.04775 0.740834,-0.381 1.672167,-0.381 0.931333,0 1.672167,0.381 0.740833,0.37042 1.153583,1.04775 0.41275,0.66675 0.41275,1.524 0,0.85725 -0.41275,1.53459 -0.41275,0.67733 -1.153583,1.05833 -0.740834,0.381 -1.672167,0.381 z m 0,-1.59808 q 0.529167,0 0.867833,-0.35984 0.338667,-0.37041 0.338667,-1.016 0,-0.635 -0.338667,-0.99483 -0.338666,-0.35983 -0.867833,-0.35983 -0.529167,0 -0.867833,0.35983 -0.338667,0.35983 -0.338667,0.99483 0,0.64559 0.338667,1.016 0.338666,0.35984 0.867833,0.35984 z" />
      <path
         id="path835"
         style="stroke-width:0.26458332"
         d="m 41.383145,285.17842 h 2.010834 v 7.85283 h -2.010834 z" />
      <path
         id="path837"
         style="stroke-width:0.26458332"
         d="m 47.569105,293.1265 q -0.92075,0 -1.661583,-0.381 -0.740834,-0.381 -1.164167,-1.05833 -0.41275,-0.67734 -0.41275,-1.53459 0,-0.84666 0.41275,-1.524 0.423333,-0.67733 1.153583,-1.04775 0.740834,-0.381 1.672167,-0.381 0.931333,0 1.672167,0.381 0.740833,0.37042 1.153583,1.04775 0.41275,0.66675 0.41275,1.524 0,0.85725 -0.41275,1.53459 -0.41275,0.67733 -1.153583,1.05833 -0.740834,0.381 -1.672167,0.381 z m 0,-1.59808 q 0.529167,0 0.867833,-0.35984 0.338667,-0.37041 0.338667,-1.016 0,-0.635 -0.338667,-0.99483 -0.338666,-0.35983 -0.867833,-0.35983 -0.529167,0 -0.867833,0.35983 -0.338667,0.35983 -0.338667,0.99483 0,0.64559 0.338667,1.016 0.338666,0.35984 0.867833,0.35984 z" />
      <path
         id="path839"
         style="stroke-width:0.26458332"
         d="m 53.654686,287.983 q 0.306916,-0.39158 0.79375,-0.58208 0.497416,-0.20109 1.132416,-0.20109 v 1.80975 q -0.275166,-0.0318 -0.455083,-0.0318 -0.645583,0 -1.016,0.34925 -0.359833,0.34925 -0.359833,1.06892 v 2.63525 h -2.010833 v -5.73617 h 1.915583 z" />
      <path
         id="path841"
         style="stroke-width:0.26458332"
         d="m 58.49557,293.1265 q -0.719667,0 -1.418167,-0.15875 -0.6985,-0.16933 -1.121833,-0.43392 l 0.60325,-1.37583 q 0.391583,0.24342 0.931333,0.39158 0.53975,0.13759 1.068917,0.13759 0.486833,0 0.687917,-0.0952 0.211666,-0.10584 0.211666,-0.29634 0,-0.1905 -0.254,-0.26458 -0.243416,-0.0847 -0.783166,-0.15875 -0.687917,-0.0847 -1.17475,-0.22225 -0.47625,-0.13758 -0.8255,-0.508 -0.34925,-0.37042 -0.34925,-1.03717 0,-0.55033 0.328083,-0.97366 0.328083,-0.43392 0.9525,-0.67734 0.635,-0.254 1.513417,-0.254 0.624416,0 1.238249,0.127 0.613834,0.127 1.026584,0.35984 l -0.60325,1.36525 q -0.762,-0.42334 -1.651,-0.42334 -0.47625,0 -0.6985,0.11642 -0.22225,0.10583 -0.22225,0.28575 0,0.20108 0.243417,0.28575 0.243416,0.0741 0.804333,0.15875 0.709083,0.10583 1.17475,0.24342 0.465666,0.13758 0.804333,0.508 0.34925,0.35983 0.34925,1.016 0,0.53975 -0.328083,0.97366 -0.328084,0.42334 -0.973667,0.66675 -0.635,0.24342 -1.534583,0.24342 z" />
    </g>
    <path
       id="rect33"
       d="M 0,295.14792 H 8.7690477 V 297 H 0 Z"
       style="fill:#e5004f;fill-opacity:1;stroke-width:0.2495711" />
    <path
       id="rect33-4"
       d="M 8.7690468,295.14792 H 17.538095 V 297 H 8.7690468 Z"
       style="fill:#f39800;fill-opacity:1;stroke-width:0.2495711" />
    <path
       id="rect33-44"
       d="m 17.538094,295.14792 h 8.769047 V 297 h -8.769047 z"
       style="fill:#fff100;fill-opacity:1;stroke-width:0.2495711" />
    <path
       id="rect33-9"
       d="m 26.30714,295.14792 h 8.769048 V 297 H 26.30714 Z"
       style="fill:#009944;fill-opacity:1;stroke-width:0.2495711" />
    <path
       id="rect33-8"
       d="m 35.076187,295.14792 h 8.769048 V 297 h -8.769048 z"
       style="fill:#00a0e9;fill-opacity:1;stroke-width:0.2495711" />
    <path
       id="rect33-5"
       d="m 43.84523,295.14792 h 8.769048 V 297 H 43.84523 Z"
       style="fill:#0068b7;fill-opacity:1;stroke-width:0.2495711" />
    <path
       id="rect33-3"
       d="m 52.614281,295.14792 h 8.769047 V 297 h -8.769047 z"
       style="fill:#920783;fill-opacity:1;stroke-width:0.2495711" />
  </g>
</svg>
